FILE "Angelique Special (1995)(NEC Home Electronics)(JP)[FXNHE514].img" BINARY
  TRACK 01 AUDIO
    INDEX 01 00:00:00
  TRACK 02 MODE1/2352
    PREGAP 00:03:00
    INDEX 01 00:55:45
  TRACK 03 MODE1/2352
    INDEX 01 01:01:29
  TRACK 04 MODE1/2352
    INDEX 01 01:56:38
  TRACK 05 MODE1/2352
    INDEX 01 14:42:71
  TRACK 06 AUDIO
    PREGAP 00:02:00
    INDEX 01 43:06:09
